<svg xmlns="http://www.w3.org/2000/svg" viewBox="0 0 512 512"><defs><style>.cls-1{fill:#f1f1f1;}</style></defs><g id="Layer_2" data-name="Layer 2"><rect x="86" y="103" width="330" height="302"/></g><g id="Layer_1" data-name="Layer 1"><path class="cls-1" d="M256,8C119,8,8,119,8,256S119,504,256,504,504,393,504,256,393,8,256,8ZM377.6,321.1a12,12,0,0,1,0,17L338,377.6a12,12,0,0,1-17,0L256,312l-65.1,65.6a12,12,0,0,1-17,0L134.4,338a12,12,0,0,1,0-17L200,256l-65.6-65.1a12,12,0,0,1,0-17L174,134.3a12,12,0,0,1,17,0L256,200l65.1-65.6a12,12,0,0,1,17,0L377.7,174a12,12,0,0,1,0,17L312,256Z"/></g></svg>