<svg id="Layer_1" data-name="Layer 1" xmlns="http://www.w3.org/2000/svg" viewBox="0 0 293.52 95.03" fill="#ffffff">
    <path d="M21.76,34.7,19.16,38A114.22,114.22,0,0,1,8.05,50.62q-4,3.66-6.54,3.66a1.55,1.55,0,0,1-1-.39A1.14,1.14,0,0,1,0,53q0-2.46,3.81-6.8t7.72-5.5l4.89-6q-5.28-.29-6.49-.81A1.82,1.82,0,0,1,8.72,32c0-.78.61-1.89,1.84-3.34a12.3,12.3,0,0,1,3.71-3.13,12.48,12.48,0,0,1,3.57-1.14A35.88,35.88,0,0,1,23.41,24a6.08,6.08,0,0,1-2.86,1.39c-1.26.29-2.05.49-2.37.61h5.16Q33.54,14.31,41,7.15T50.27,0a2,2,0,0,1,1.59.9A3.36,3.36,0,0,1,52.56,3a13.58,13.58,0,0,1-.35,2.66c-.24,1.09-.58,2.31-1,3.67L46.37,24.86l3.76-.25h.49A5.32,5.32,0,0,1,53,25.1c.67.33,1,.7,1,1.13a6.26,6.26,0,0,1-1.53,2.9,24.82,24.82,0,0,1-3.57,3.78c-.63.54-2,.9-4,1.09-.58,0-1,.09-1.4.14Q42.4,37.73,42,39.46a12.52,12.52,0,0,0-.43,2.66,2.58,2.58,0,0,0,.29,1.3.82.82,0,0,0,.73.49c.71,0,1.9-.56,3.57-1.69s4-2.95,7.09-5.48l.07,2.42q-6.72,7.29-9.93,9.55a10.66,10.66,0,0,1-6,2.27,3.86,3.86,0,0,1-2.92-1,4.28,4.28,0,0,1-1-3,12.15,12.15,0,0,1,.13-1.81A8.48,8.48,0,0,1,34,43.49l3.09-9.42q-2.67.32-5.8.47c-2.09.11-4.45.16-7.1.16Zm18-9.63L45.28,8.23q-4.64,4.29-8.74,8.63t-7.85,9q3.72-.11,6.38-.3C36.84,25.41,38.4,25.25,39.76,25.07Z" />
    <path d="M69.64,39.76a64.3,64.3,0,0,1-6.46,7.37c-1.74,1.6-3.11,2.41-4.12,2.41-1.33,0-2.58-.85-3.72-2.54a10.57,10.57,0,0,1-1.73-6.11,14.14,14.14,0,0,1,1.46-6.24A30.28,30.28,0,0,1,60,27.81a16.57,16.57,0,0,1,3.29-3,5.17,5.17,0,0,1,2.62-.68,7.77,7.77,0,0,1,2.81.45c.77.31,1.16.66,1.16,1.06,0,.7-.57,1.73-1.7,3.09s-3.77,4-7.9,8a24,24,0,0,0-1,2.58A5.79,5.79,0,0,0,58.92,41a1.77,1.77,0,0,0,.09.68.31.31,0,0,0,.3.2q1.2,0,5-3.08a93.5,93.5,0,0,0,8.4-8l.07,0q8.3-8.89,10-8.9a1.12,1.12,0,0,1,1,.78,5.68,5.68,0,0,1,.35,2.25,5.73,5.73,0,0,1-1.41,3.76l-.1.1A46.54,46.54,0,0,0,77,36.33Q74.93,40,74.92,41.77a1.53,1.53,0,0,0,.51,1.17,1.7,1.7,0,0,0,1.21.48,6.16,6.16,0,0,0,3-1.44q2-1.44,7.91-6.68v3.23a96.88,96.88,0,0,1-9.91,10.11c-2.18,1.74-4,2.62-5.55,2.62A4.16,4.16,0,0,1,69,50a4.53,4.53,0,0,1-1.2-3.31,12.57,12.57,0,0,1,.49-3.11A30,30,0,0,1,69.64,39.76Z" />
    <path d="M88.28,38.18l-.85.61c-.3.23-.76.55-1.37,1l-.07-3c1.83-1.92,3.44-3.69,4.82-5.29s2.64-3.16,3.76-4.66c-.75-.12-1.44-.21-2.06-.26s-1.17-.09-1.67-.09H89.4a1.12,1.12,0,0,1-.56-.11.38.38,0,0,1-.18-.35,8.18,8.18,0,0,1,1.57-3.06,12.32,12.32,0,0,1,2.83-3.2,6.31,6.31,0,0,1,2.56-.93,34,34,0,0,1,4.79-.37l1-1.26Q105.11,12,109.2,12a1.69,1.69,0,0,1,1,.34,1,1,0,0,1,.46.75,2.2,2.2,0,0,1-.21.92,4,4,0,0,1-.67,1l-3,3.58a10.42,10.42,0,0,1,2.74.46c.66.23,1,.52,1,.84a7,7,0,0,1-1.36,2.41,23.28,23.28,0,0,1-3.11,3.57,6.37,6.37,0,0,1-2,1.32,6.55,6.55,0,0,1-2.28.33c-.71,0-1.2,0-1.48,0h-.7a33.65,33.65,0,0,0-4.78,7.85,18.39,18.39,0,0,0-1.76,7.09A2.35,2.35,0,0,0,93.64,44a1.83,1.83,0,0,0,1.42.56c1,0,2.52-.73,4.61-2.2a100.87,100.87,0,0,0,8.44-6.94l.07,3.09A71.23,71.23,0,0,1,97.75,48q-4.65,3.28-7.64,3.29a4.33,4.33,0,0,1-3.26-1.18,4.64,4.64,0,0,1-1.14-3.36,13.75,13.75,0,0,1,.67-4A26.31,26.31,0,0,1,88.28,38.18Z" />
    <path d="M121.92,45.46a18.59,18.59,0,0,1-4.64,3.81,9.46,9.46,0,0,1-4.64,1.28,6.63,6.63,0,0,1-5.43-2.81,11.3,11.3,0,0,1-2.2-7.2,14.59,14.59,0,0,1,1.72-6.49,21.64,21.64,0,0,1,4.68-6.17,20.81,20.81,0,0,1,5.47-3.75,12.89,12.89,0,0,1,5.36-1.38,7.2,7.2,0,0,1,3.46.84c1,.56,1.57,1.12,1.57,1.69,0,.14-.17.39-.5.75s-.59.69-.81,1h.15a1.84,1.84,0,0,1,1.68.76,5,5,0,0,1,.5,2.62,16.29,16.29,0,0,1-1,5.36,32.54,32.54,0,0,1-2.88,6,7.94,7.94,0,0,0,3.87-1.6,47.52,47.52,0,0,0,5.9-5.12l-.07,3.62a41.26,41.26,0,0,1-6.24,5.33,8.42,8.42,0,0,1-4.41,1.56c-.38,0-.68,0-.92,0Zm-3.58-3.27c0-.1,0-.24,0-.42-.07-.85-.1-1.45-.1-1.8a14,14,0,0,1,.91-4.51,43.09,43.09,0,0,1,2.67-5.93,22,22,0,0,0-8.23,5.73q-3.26,3.69-3.26,6.79a2.48,2.48,0,0,0,2.81,2.81,5.67,5.67,0,0,0,2.58-.69A10.61,10.61,0,0,0,118.34,42.19Z" />
    <path d="M177.71,35.37l-.07,3.16q-7.2,8-10.17,10.27a9.25,9.25,0,0,1-5.36,2.25,4.69,4.69,0,0,1-3.19-1,3.5,3.5,0,0,1-1.14-2.79,14.09,14.09,0,0,1,1.85-6A57.11,57.11,0,0,1,165,33a105,105,0,0,0-10.87,10.74Q148.61,50,147,50a3,3,0,0,1-2.23-.72,3.17,3.17,0,0,1-.72-2.31,12.34,12.34,0,0,1,1.58-5q1.57-3.21,6.78-11.39a69.17,69.17,0,0,0-11.56,12.12c-3.5,4.65-5.66,7-6.51,7-1,0-1.89-.79-2.58-2.36a15.64,15.64,0,0,1-1-6.22,14.24,14.24,0,0,1,.41-3.76,16.1,16.1,0,0,1,2.12-4.08,38.55,38.55,0,0,1,4.34-5.75,4.52,4.52,0,0,1,3.08-1.53,7.52,7.52,0,0,1,2.83.37,1.26,1.26,0,0,1,.83,1.21c0,.89-1.6,3.21-4.78,7l-3.06,3.62-.14,2.39q10.82-11,14.43-13.83t5.57-2.86a2.45,2.45,0,0,1,1.85.72,2.74,2.74,0,0,1,.68,2q0,2.49-5.24,10.76c-.54.84-.95,1.5-1.23,2q7.17-6.81,11.67-10.53c3-2.47,4.87-3.7,5.59-3.7.43,0,1,.55,1.69,1.65a5.68,5.68,0,0,1,1.06,3c0,.7-.74,1.95-2.22,3.73-.37.47-.67.83-.88,1.09a32,32,0,0,0-3.09,4.27,6.25,6.25,0,0,0-1,2.86,1.45,1.45,0,0,0,.51,1.11,1.7,1.7,0,0,0,1.21.48,6.86,6.86,0,0,0,3.45-1.52A87.72,87.72,0,0,0,177.71,35.37Z" />
    <path d="M191.39,45.46a18.77,18.77,0,0,1-4.64,3.81,9.46,9.46,0,0,1-4.64,1.28,6.63,6.63,0,0,1-5.43-2.81,11.3,11.3,0,0,1-2.2-7.2,14.46,14.46,0,0,1,1.72-6.49,21.64,21.64,0,0,1,4.68-6.17,20.81,20.81,0,0,1,5.47-3.75,12.89,12.89,0,0,1,5.36-1.38,7.2,7.2,0,0,1,3.46.84c1,.56,1.56,1.12,1.56,1.69,0,.14-.16.39-.49.75s-.6.69-.81,1h.14a1.85,1.85,0,0,1,1.69.76,5,5,0,0,1,.49,2.62,16.27,16.27,0,0,1-1,5.36,32.54,32.54,0,0,1-2.88,6,8,8,0,0,0,3.86-1.6A47.46,47.46,0,0,0,203.66,35l-.07,3.62a41.26,41.26,0,0,1-6.24,5.33,8.42,8.42,0,0,1-4.41,1.56c-.38,0-.68,0-.92,0Zm-3.59-3.27a4.06,4.06,0,0,0,0-.42c-.07-.85-.11-1.45-.11-1.8a14,14,0,0,1,.92-4.51,43.09,43.09,0,0,1,2.67-5.93A22,22,0,0,0,183,35.26q-3.27,3.69-3.27,6.79a2.49,2.49,0,0,0,2.82,2.81,5.67,5.67,0,0,0,2.58-.69A10.39,10.39,0,0,0,187.8,42.19Z" />
    <path d="M204.26,38.18l-.85.61c-.3.23-.76.55-1.37,1l-.07-3c1.83-1.92,3.44-3.69,4.82-5.29s2.64-3.16,3.76-4.66c-.75-.12-1.43-.21-2.06-.26s-1.17-.09-1.67-.09h-1.44a1.12,1.12,0,0,1-.56-.11.38.38,0,0,1-.18-.35,8.18,8.18,0,0,1,1.57-3.06,12.5,12.5,0,0,1,2.83-3.2,6.3,6.3,0,0,1,2.57-.93,33.69,33.69,0,0,1,4.78-.37l1-1.26Q221.09,12,225.18,12a1.69,1.69,0,0,1,1,.34.92.92,0,0,1,.46.75,2.2,2.2,0,0,1-.21.92,4,4,0,0,1-.67,1l-3,3.58a10.42,10.42,0,0,1,2.74.46c.66.23,1,.52,1,.84a7,7,0,0,1-1.36,2.41,23.28,23.28,0,0,1-3.11,3.57,6.37,6.37,0,0,1-2,1.32,6.55,6.55,0,0,1-2.28.33c-.71,0-1.2,0-1.48,0h-.7a33.65,33.65,0,0,0-4.78,7.85,18.57,18.57,0,0,0-1.76,7.09,2.35,2.35,0,0,0,.51,1.62,1.83,1.83,0,0,0,1.42.56c1,0,2.52-.73,4.61-2.2a100.87,100.87,0,0,0,8.44-6.94l.07,3.09A71.23,71.23,0,0,1,213.73,48q-4.65,3.28-7.64,3.29a4.33,4.33,0,0,1-3.26-1.18,4.64,4.64,0,0,1-1.14-3.36,13.75,13.75,0,0,1,.67-4A26.31,26.31,0,0,1,204.26,38.18Z" />
    <path d="M242.54,35.37l.07,3.16A57.41,57.41,0,0,1,234,47.48q-3.54,2.72-6.45,2.72a5.32,5.32,0,0,1-4.68-2.51,12.52,12.52,0,0,1-1.69-7,16.19,16.19,0,0,1,1.64-7.26,26.84,26.84,0,0,1,5.43-7,15.67,15.67,0,0,1,3.37-2.71,6.4,6.4,0,0,1,3-.77,2.71,2.71,0,0,1,1.79.51,1.9,1.9,0,0,1,.6,1.53q0,2-2.5,5.37a45.74,45.74,0,0,1-6.92,7.14,13.15,13.15,0,0,0-.3,1.34,6.57,6.57,0,0,0-.09,1,3.33,3.33,0,0,0,1,2.5,3.43,3.43,0,0,0,2.51,1c1.13,0,2.73-.7,4.82-2.09A53.74,53.74,0,0,0,242.54,35.37Zm-7.13-16.56a6.49,6.49,0,0,1,1.89-4.43,5.5,5.5,0,0,1,4-2.08,2.11,2.11,0,0,1,1.65.62,2.52,2.52,0,0,1,.57,1.78,6.88,6.88,0,0,1-1.9,4.27c-1.27,1.51-2.53,2.26-3.8,2.26a2.33,2.33,0,0,1-2.42-2.42Z" />
    <path d="M256.36,43.28a66.68,66.68,0,0,1-6.86,6.36,6.36,6.36,0,0,1-3.44,1.48c-1.55,0-2.95-.94-4.22-2.82a11.35,11.35,0,0,1-1.9-6.53,16.85,16.85,0,0,1,1.16-6.07,24.15,24.15,0,0,1,3.59-6.1A22.2,22.2,0,0,1,248.06,26a4.2,4.2,0,0,1,2.53-1.09,5.67,5.67,0,0,1,2.55.65c.88.43,1.32.83,1.32,1.21A10.26,10.26,0,0,1,253,30.11a20.32,20.32,0,0,1-3.23,4.45c-.24.26-.6.63-1.09,1.12Q245,39.42,245,42.26a3.74,3.74,0,0,0,.35,1.76,1.06,1.06,0,0,0,1,.63,4.55,4.55,0,0,0,2.6-1.11A50.71,50.71,0,0,0,254,38.6a23.93,23.93,0,0,1,4.67-8.91c2.28-2.8,4-4.2,5-4.2a2.3,2.3,0,0,1,1.44.6,1.72,1.72,0,0,1,.74,1.4,12.37,12.37,0,0,1-1.6,5.29,35.19,35.19,0,0,1-4.44,6.6,3.66,3.66,0,0,0,1.14,1,2.69,2.69,0,0,0,1.32.32,6.32,6.32,0,0,0,3.3-1.29,33.23,33.23,0,0,0,4.75-4.09l-.07,3.3a28.72,28.72,0,0,1-5.4,4.82A8.4,8.4,0,0,1,260.44,45a5.12,5.12,0,0,1-2-.42A9.06,9.06,0,0,1,256.36,43.28Z" />
    <path d="M273.73,38.74v.35A5.6,5.6,0,0,0,275,42.94a4.34,4.34,0,0,0,3.41,1.43q2.78,0,6.75-2.36a45.41,45.41,0,0,0,8.37-6.64v3.16a53.56,53.56,0,0,1-10.09,9.16A15.64,15.64,0,0,1,275,50.55a7.45,7.45,0,0,1-6-2.49q-2.08-2.51-2.09-7.17a15,15,0,0,1,1.62-6.72,22.81,22.81,0,0,1,4.78-6.29,24.28,24.28,0,0,1,6.59-4.57,16.29,16.29,0,0,1,6.8-1.55,7.52,7.52,0,0,1,3.87.78,2.59,2.59,0,0,1,1.27,2.39q0,3.64-5.24,7.82A32.5,32.5,0,0,1,273.73,38.74Zm.28-3.09a49.18,49.18,0,0,0,9-5q3.25-2.45,3.25-4.09a1.23,1.23,0,0,0-.12-.62.41.41,0,0,0-.37-.19q-2.25,0-5.87,2.85A21.87,21.87,0,0,0,274,35.65Z" />
    <path d="M34.47,70.74a44.6,44.6,0,0,1,6.66-.51c4.5,0,7.7,1,9.83,3S54.38,78,54.38,82s-1.23,7.2-3.5,9.43-6,3.49-10.72,3.49a50.51,50.51,0,0,1-5.69-.29ZM37.6,92.19a20.22,20.22,0,0,0,3.17.18c6.69,0,10.33-3.74,10.33-10.29,0-5.73-3.2-9.36-9.83-9.36A17.84,17.84,0,0,0,37.6,73Z" />
    <path d="M76.05,83.3H66.62v8.75H77.13v2.62H63.49V70.41h13.1V73h-10v7.67h9.43Z" />
    <path d="M90.16,87l-2.52,7.63H84.4l8.24-24.26h3.78l8.28,24.26h-3.34L98.76,87Zm8-2.44-2.38-7c-.54-1.58-.9-3-1.26-4.42h-.07c-.36,1.44-.76,2.91-1.23,4.39l-2.37,7Z" />
    <path d="M113.31,70.41h3.13V92.05h10.37v2.62h-13.5Z" />
    <path d="M147.9,83.3h-9.43v8.75H149v2.62H135.34V70.41h13.1V73h-10v7.67h9.43Z" />
    <path d="M158.09,70.74a32.09,32.09,0,0,1,6-.51c3.35,0,5.51.62,7,2A6,6,0,0,1,173,76.82,6.36,6.36,0,0,1,168.46,83v.11c1.87.65,3,2.38,3.56,4.9a38.3,38.3,0,0,0,1.88,6.65h-3.24A30.65,30.65,0,0,1,169,88.88c-.72-3.35-2-4.61-4.86-4.72h-3V94.67h-3.13Zm3.13,11.05h3.21c3.35,0,5.47-1.84,5.47-4.61,0-3.13-2.27-4.5-5.58-4.53a13.34,13.34,0,0,0-3.1.28Z" />
    <path d="M182.07,90.86a11.13,11.13,0,0,0,5.61,1.58c3.21,0,5.08-1.69,5.08-4.14,0-2.26-1.3-3.56-4.57-4.82-4-1.4-6.41-3.46-6.41-6.88,0-3.77,3.13-6.58,7.85-6.58A10.93,10.93,0,0,1,195,71.21l-.86,2.55a9.68,9.68,0,0,0-4.61-1.15c-3.31,0-4.57,2-4.57,3.64,0,2.26,1.47,3.38,4.82,4.67,4.11,1.59,6.19,3.57,6.19,7.13,0,3.74-2.77,7-8.49,7a12.56,12.56,0,0,1-6.19-1.54Z" />
    <path d="M208.42,70.41V80.56h11.74V70.41h3.16V94.67h-3.16V83.3H208.42V94.67h-3.13V70.41Z" />
    <path d="M236.93,70.41V94.67H233.8V70.41Z" />
    <path d="M247.44,70.7a36.67,36.67,0,0,1,6-.47c3.09,0,5.36.72,6.8,2a6.53,6.53,0,0,1,2.12,5.08,7.16,7.16,0,0,1-1.87,5.18c-1.65,1.76-4.35,2.66-7.41,2.66a10.78,10.78,0,0,1-2.52-.21v9.71h-3.14Zm3.14,11.7a10.44,10.44,0,0,0,2.59.25c3.78,0,6.08-1.83,6.08-5.18s-2.27-4.75-5.72-4.75a13.39,13.39,0,0,0-2.95.25Z" /></svg>